<?xml version="1.0" encoding="UTF-8"?>
<!-- Created with Inkscape (http://www.inkscape.org/) -->
<svg width="39.93mm" height="39.93mm" version="1.1" viewBox="0 0 39.93 39.93" xmlns="http://www.w3.org/2000/svg" xmlns:xlink="http://www.w3.org/1999/xlink">
 <defs>
  <linearGradient id="linearGradient11990" x1="94.652" x2="133.92" y1="119.13" y2="129.48" gradientTransform="translate(1.5875)" gradientUnits="userSpaceOnUse">
   <stop stop-color="#8a63f1" offset="0"/>
   <stop stop-color="#6366f1" offset="1"/>
  </linearGradient>
  <linearGradient id="linearGradient12086" x1="137.94" x2="103.72" y1="131.58" y2="154" gradientTransform="translate(1.5875)" gradientUnits="userSpaceOnUse">
   <stop stop-color="#d8b4fe" offset="0"/>
   <stop stop-color="#6366f1" offset="1"/>
  </linearGradient>
 </defs>
 <g transform="translate(-86.312 -115.06)">
  <path d="m96.24 119.13s-3.7307 4.959-4.3949 8.1594c-0.6295 3.0334-1.1667 7.7839 0.95511 11.454s5.0976 7.3064 5.9989 7.3651c0.90132 0.0586 0.99903-1.4436 4.7016-0.79457 3.7026 0.64902 6.0752 2.0989 7.6388 1.5262 1.5636-0.57271 3.6307-1.5209 4.2148-0.95046 0.58407 0.57043 1.1813 1.2793 0.15389 2.2729-1.0274 0.9936-3.3958 1.8645-4.3048 2.1293-0.90906 0.26477-2.3912 0.40352-2.3912 0.40352s3.6428 0.47653 6.6573-0.91583c2.1287-0.45931 6.2293-4.5681 7.7722-4.2775 0.59112 0.1893 1.8692 0.86699-0.8089 3.3638s-5.062 4.4937-8.1821 5.258c-5.6529 1.3032-11.502 1.4414-16.37-1.677-6.3317-4.2912-9.8646-8.4056-9.9707-17.11 0.32398-5.905 2.9827-13.019 8.3296-16.207z" fill="url(#linearGradient12086)"/>
  <path d="m96.855 144.49s-1.9246-2.7834-2.3698-6.805c-0.69097-4.3263 0.42094-10.508 4.2107-13.273 1.049-0.69618 0.83568-0.51778 0.83568-0.51778s1.7699 1.4509 3.98 0.93974c2.21-0.51114 2.2527-0.61859 3.9749-1.1222 1.7222-0.50366 3.6868-0.64881 5.2312-0.12866 1.5444 0.52014 2.0589 1.0665 2.8526 0.74732 0.79371-0.31915 1.6343-1.1107 0.49282-1.9945-1.1414-0.88375-2.8888-1.9899-4.9339-2.4271-2.0451-0.43718-1.2391-0.76008-0.4935-0.70092 0.74557 0.0592 4.1409 0.68394 5.5173 1.4972 1.3763 0.81323 4.7325 2.8784 5.383 3.384 0.65047 0.50552 1.1761 0.95422 1.8091 0.81805 0.63301-0.13616 1.6306-0.85353 0.41859-2.2417-3.6954-4.3701-8.9713-7.5162-13.834-7.5585-5.8028-0.33242-12.135 1.4756-15.357 5.7705-4.7727 6.7245-6.4781 19.175 2.1421 23.478z" fill="url(#linearGradient11990)"/>
  <g transform="matrix(.031826 0 0 .031826 99.561 125.63)" fill="#818cf8">
   <path d="m297.3 550.87c-13.775-15.436-48.171-45.53-76.435-66.874-83.744-63.242-95.142-72.394-129.14-103.7-62.685-57.72-89.306-115.71-89.214-194.34 0.044512-38.384 2.6608-53.172 13.41-75.797 18.237-38.386 45.1-66.909 79.445-84.355 24.325-12.356 36.323-17.845 76.944-18.07 42.493-0.23483 51.439 4.7197 76.435 18.452 30.425 16.714 61.74 52.436 68.213 77.811l3.9981 15.672 9.8596-21.585c55.716-121.97 233.6-120.15 295.5 3.0316 19.638 39.076 21.794 122.51 4.3801 169.51-22.715 61.309-65.38 108.05-164.01 179.68-64.681 46.974-137.88 118.05-142.98 128.03-5.9155 11.588-0.28216 1.8159-26.408-27.461z" fill="#818cf8"/>
  </g>
 </g>
</svg>
